<svg width="643" height="401" viewBox="0 0 643 401" fill="none" xmlns="http://www.w3.org/2000/svg">
<g clip-path="url(#clip0_2009_3652)">
<path d="M206.652 227.103C183.934 236.328 160.966 239.87 137.048 236.328C128.779 235.127 120.379 235.067 112.17 234.497C111.87 234.937 111.51 235.197 111.51 235.507C111.27 256.238 110.67 276.978 110.97 297.648C111.21 314.207 122.179 317.999 133.448 319.9C140.168 321.04 146.997 321.67 153.776 322.301C156.656 322.551 157.676 323.821 157.436 326.663C157.016 330.965 156.776 335.327 156.416 339.939H8.50944C8.50944 335.007 8.14947 330.265 8.74942 325.652C8.9294 324.392 11.6292 322.811 13.429 322.431C19.6084 321.17 26.0779 321.17 32.0773 319.269C43.8862 315.537 46.766 305.042 47.3659 294.047C48.3858 273.877 49.0458 253.656 49.4057 233.426C50.2457 185.763 50.9656 138.099 51.4456 90.4351C51.5056 84.5521 50.7256 78.4891 49.3458 72.7963C47.126 64.0719 40.3566 59.9599 32.3173 58.259C26.0179 56.8683 19.5484 56.238 12.4091 55.1575C12.7691 49.7248 13.069 44.282 13.489 38.2791H19.1885C57.375 38.2791 95.5716 38.2791 133.758 38.3391C151.387 38.3391 169.015 39.2195 186.213 43.5217C213.191 50.225 237.049 62.1109 251.857 87.7737C264.566 109.775 268.286 133.667 263.846 158.699C258.087 191.315 238.429 212.436 209.771 225.703C208.811 226.023 207.911 226.523 206.652 227.093V227.103ZM121.279 128.294C115.64 145.863 110.01 163.381 104.251 180.95C101.791 188.534 102.631 192.516 109.77 195.237C117.68 198.209 126.079 200.93 134.408 201.5C148.677 202.511 163.125 202.261 177.454 201.561C187.463 201.05 197.542 199.219 206.232 193.406C209.891 191.005 213.191 187.904 211.151 182.721C203.362 162.811 196.043 142.711 187.533 123.171C180.574 107.303 177.404 90.9953 178.244 73.7968C178.604 66.5932 178.664 65.8328 171.645 65.7728C158.516 65.6427 145.327 66.283 132.198 66.8433C130.518 66.9033 128.899 68.234 128.299 68.4841C128.899 73.6667 129.678 77.8988 129.738 82.1409C129.858 89.4746 130.458 97.0584 129.079 104.202C127.519 112.106 124.099 119.69 121.289 128.284L121.279 128.294Z" fill="#80C835"/>
</g>
<g clip-path="url(#clip1_2009_3652)">
<path d="M316.189 151.746C317.009 158.499 317.729 164.382 321.989 169.414C327.238 175.608 337.627 180.3 342.277 176.218C351.206 168.384 338.347 156.038 331.278 163.161C328.988 165.463 330.878 169.084 326.608 166.883C319.629 163.291 315.309 145.863 323.478 141.841C342.807 132.316 362.645 145.292 366.305 165.302V173.637C358.985 213.566 305.3 203.341 296.851 171.556C290.511 147.694 300.321 132.306 302.5 110.495C303.92 96.3681 297.541 87.1134 287.972 77.7688C309.26 75.4476 315.379 95.9178 316.169 113.196C316.169 113.327 316.169 113.236 316.169 129.875V138.209C315.769 141.491 315.489 146.193 316.169 151.756L316.189 151.746Z" fill="#231F20"/>
<path d="M454.036 94.4271C456.876 99.4796 453.286 104.882 452.187 109.775C448.027 128.434 446.277 138.179 449.637 157.699C452.957 177.028 454.376 199.299 445.177 217.418C443.997 219.74 438.128 226.203 438.368 227.293C438.648 228.564 442.067 228.944 443.097 229.885L456.126 240.33C455.606 239.99 453.906 239.93 452.657 239.139C444.177 233.727 432.568 224.882 423.759 221.05C404.481 212.646 408.77 233.617 408.111 245.042C406.711 269.034 402.861 297.178 404.941 321.12C405.021 322.011 405.831 326.613 406.011 326.843C406.281 327.193 412.63 325.592 414.89 325.763C417.15 325.933 420.21 327.653 421.179 327.583C422.299 327.503 429.029 318.769 435.278 319.97C437.658 320.43 439.878 323.131 441.868 322.591C444.707 321.811 444.297 317.909 445.637 315.838C446.977 313.767 452.157 311.465 454.686 311.225C456.466 311.055 462.116 312.846 462.406 309.124C463.026 315.247 457.236 312.816 453.566 313.326C446.637 314.307 445.757 322.691 442.907 323.531C438.128 324.952 436.598 321.39 433.758 321.59C428.779 321.931 425.539 327.994 423.049 328.744C420.05 329.654 416.99 327.954 413.87 327.814C409.96 327.643 405.671 330.415 404.141 326.083C402.291 320.86 403.911 318.329 403.961 313.857C404.131 298.899 402.231 279.099 403.961 264.932C404.381 261.52 409.76 248.994 402.381 249.695C400.461 249.875 398.821 251.546 396.102 251.836C383.193 253.246 363.435 252.446 352.726 245.542C357.705 246.113 362.185 248.494 367.084 249.454C379.933 251.966 392.162 250.455 404.941 248.674C404.201 246.853 405.831 239.73 405.511 239.289C404.401 237.739 400.041 238.339 397.571 237.799C395.492 237.338 393.112 235.487 391.702 235.257C390.152 235.007 388.602 237.729 386.923 238.499C381.433 241.03 379.023 237.338 375.203 237.318C373.024 237.308 370.064 239.279 368.024 239.049C365.654 238.779 363.235 235.868 361.395 235.327C357.965 234.327 354.495 237.068 351.076 234.147C350.086 233.296 349.886 231.525 349.386 231.175C348.406 230.505 345.566 231.065 343.336 229.384C339.327 226.373 343.636 227.303 336.777 225.533C332.197 224.352 333.357 221.751 331.567 219.76C330.787 218.889 328.838 218.579 327.628 216.928C325.988 214.687 325.058 211.265 322.448 209.074C322.698 208.604 322.988 208.244 323.488 208.034C324.938 209.795 327.468 209.935 328.198 211.145C328.928 212.356 328.468 214.297 329.188 215.367C329.798 216.278 332.137 216.498 333.427 217.388C335.427 218.769 336.477 221.731 337.317 222.361C338.287 223.091 340.617 222.971 342.277 224.192C343.786 225.302 344.176 227.423 344.536 227.654C345.556 228.324 348.036 227.293 349.616 228.314C350.856 229.114 351.116 232.176 353.406 232.856C356.955 233.907 361.295 231.796 362.565 232.086C363.834 232.376 363.605 236.048 368.924 236.238C372.464 236.358 373.634 234.057 375.164 234.037C376.773 234.027 378.193 236.188 379.803 236.748C386.853 239.189 388.932 231.986 391.852 231.976C393.542 231.976 395.812 233.937 397.622 234.587C407.331 238.079 404.081 234.157 404.901 227.273C405.841 219.419 409.59 215.127 417.94 216.398C419.969 216.708 427.579 220.94 428.939 219.49C429.449 218.949 428.419 210.075 429.119 207.684C429.899 205.032 433.978 205.473 436.188 203.271C438.718 200.75 439.918 196.648 439.168 193.126C438.768 191.255 435.968 188.074 436.288 186.743C436.628 185.312 441.028 185.142 441.508 179.379C442.067 172.586 436.058 165.613 436.248 164.812C436.648 163.081 440.948 164.412 440.458 157.469C440.108 152.566 435.228 147.644 435.218 147.053C435.198 146.333 441.328 144.432 441.548 138.709C441.628 136.668 440.418 132.086 439.288 130.465C438.158 128.844 436.668 129.124 436.268 128.794C435.498 128.164 441.557 121.521 441.557 117.879C441.557 114.237 439.008 112.586 437.848 110.045C435.738 105.403 438.868 107.604 441.817 106.763C447.107 105.253 445.107 92.9164 445.657 92.3561C446.277 91.7158 451.627 94.8673 454.006 94.4371L454.036 94.4271ZM454.016 97.5887C453.846 97.4286 450.077 96.2881 449.867 96.5182C449.617 96.7883 449.607 101.441 448.237 103.752C446.867 106.063 441.537 109.245 441.458 109.685C440.778 113.437 443.737 116.668 443.577 119.88C443.417 123.041 440.258 125.683 440.428 128.224C440.678 131.986 444.437 133.957 443.647 140.86C443.277 144.092 440.398 145.923 440.458 148.114C440.528 150.505 444.457 152.756 443.647 159.62C443.217 163.241 441.108 163.231 440.588 164.952C439.708 167.864 444.527 174.167 443.557 180.37C443.257 182.311 441.838 183.702 441.538 185.643C440.298 193.687 444.537 205.583 432.178 207.043C432.698 210.865 431.188 214.317 431.008 217.919C430.779 222.591 431.488 220.72 433.648 222.581C434.398 223.231 436.558 225.723 436.808 225.723C437.548 225.723 440.638 220.93 441.307 219.81C461.016 186.993 442.417 159.93 446.817 126.313C447.437 121.591 448.927 115.558 450.147 110.875C450.687 108.804 454.786 98.3491 454.006 97.5887H454.016Z" fill="#30170B"/>
<path d="M592.924 136.118C582.265 136.628 573.936 141.541 564.217 142.381C547.428 143.842 536.349 139.72 523.031 130.305C517.701 126.543 513.421 121.901 509.382 116.828L528.79 120.39C545.639 121.14 558.497 111.416 575.676 110.045C584.235 109.365 580.205 111.356 581.475 113.126C597.304 114.247 614.382 120.06 624.251 132.986C617.932 133.296 611.753 131.325 605.453 130.915C605.493 132.276 606.963 132.746 607.883 133.166C610.063 134.177 610.063 133.777 608.583 135.077C603.603 135.648 597.134 133.797 592.914 136.118H592.924ZM541.229 123.612C536.689 124.372 528.55 123.612 523.481 123.612C523.151 123.612 518.121 120.95 521.891 125.202C532.77 137.509 554.918 141.15 570.416 138.139C576.626 136.928 583.235 133.076 589.535 132.206C591.534 131.936 599.824 132.276 600.244 131.946C601.354 131.045 595.714 130.065 597.114 127.784H612.253C612.603 127.784 616.562 131.436 613.792 127.293C605.393 121.661 595.094 117.719 585.005 116.418C579.695 115.738 579.046 117.729 574.976 114.507C569.026 109.805 547.548 122.561 541.239 123.612H541.229Z" fill="#2A1A10"/>
<path d="M276.502 318.489C276.722 318.269 282.492 318.329 282.702 318.559C283.352 319.289 285.421 330.715 286.431 330.995C288.411 331.555 287.971 330.105 288.471 328.914C290.671 323.601 289.961 316.878 297.39 318.489V338.289C297.39 338.499 293.351 338.449 293.221 338.289C292.641 337.638 294.041 326.823 292.691 326.813C291.771 326.813 289.401 337.648 288.961 338.209C288.801 338.409 285.102 338.409 284.942 338.209C284.312 337.418 282.102 325.762 281.212 325.772C279.862 325.772 281.272 337.628 280.682 338.289C280.542 338.449 276.512 338.489 276.512 338.289C276.512 335.457 275.812 319.189 276.512 318.489H276.502Z" fill="#201E1F"/>
<path d="M484.314 79.8398C483.354 80.8403 477.555 76.6583 477.125 74.9574C476.505 72.5162 480.085 67.0835 480.145 64.212C481.624 63.9619 481.604 66.033 481.924 67.1135C482.464 68.9844 484.904 79.2295 484.314 79.8398Z" fill="#201B1F"/>
<path d="M310.63 330.115C310.53 329.945 312.49 330.075 313.06 329.264C319.389 320.28 309.37 317.078 301.561 318.489C302.051 321.28 301.561 337.308 301.561 338.299C301.561 338.349 304.69 338.299 304.69 338.299C304.69 334.857 304.35 332.226 306.78 331.005C307.45 332.406 309.59 336.968 310.09 338.119C310.36 338.759 315.219 338.529 315.139 338.289C314.609 336.668 312.14 332.746 310.63 330.115ZM305.75 327.864C305.56 327.653 305.62 323.151 305.75 322.141C305.98 320.27 311.42 322.761 310.92 325.152C310.6 326.713 306.63 328.824 305.76 327.864H305.75Z" fill="#1D1A1D"/>
<path d="M536.539 96.5081C535.649 95.5777 523.1 98.4591 520.401 98.6492C511.542 99.2595 497.763 99.0194 494.983 88.4741C494.643 87.1835 494.923 84.182 494.773 84.0019C494.583 83.8018 490.773 84.0819 489.254 83.7718C477.615 81.4106 469.115 69.9649 466.566 58.9894C464.346 58.8994 464.586 58.5292 464.476 60.5502C464.216 65.0925 465.856 69.2245 465.576 74.157C465.296 79.0394 463.986 87.4936 460.356 90.8153C459.426 91.6657 454.917 94.257 454.047 94.4171C456.886 99.4696 453.297 104.872 452.197 109.765C448.037 128.424 446.287 138.169 449.647 157.689C452.967 177.018 454.387 199.289 445.187 217.408C444.008 219.73 438.138 226.193 438.378 227.283C438.658 228.554 442.078 228.934 443.108 229.875L456.137 240.32C466.006 246.703 484.044 258.489 492.173 266.373C504.582 278.409 488.984 274.497 483.764 279.87C482.054 281.63 480.524 285.062 479.844 287.413C479.154 289.805 479.464 292.746 478.614 294.517C477.095 297.688 472.295 296.168 469.405 296.788C466.306 297.448 462.576 301.961 461.816 304.922C461.316 306.843 462.496 308.014 462.416 309.094C463.036 315.217 457.246 312.786 453.577 313.296C446.647 314.277 445.767 322.661 442.918 323.501C438.138 324.922 436.608 321.36 433.769 321.56C428.789 321.901 425.549 327.964 423.059 328.714C420.06 329.624 417 327.924 413.88 327.783C409.971 327.613 405.681 330.385 404.151 326.053C402.301 320.83 403.921 318.299 403.971 313.827C404.141 298.869 402.241 279.069 403.971 264.902C404.391 261.49 409.771 248.964 402.391 249.665C400.472 249.845 398.832 251.515 396.112 251.806C383.203 253.216 363.445 252.416 352.736 245.512C346.156 241.27 339.177 237.418 333.947 231.435C330.528 227.523 322.119 215.137 321.569 210.345C321.419 209.024 322.379 209.174 322.449 209.044C322.698 208.574 322.988 208.214 323.488 208.004C322.919 207.323 322.669 205.883 321.879 204.952C316.149 198.259 302.85 195.888 298.591 185.422L290.071 170.485C286.932 179.349 283.052 188.114 280.942 197.338C274.433 225.863 278.553 253.937 293.391 279.189C309.22 306.133 345.776 334.937 378.024 338.089C377.944 338.089 377.854 338.089 377.784 338.089C379.343 339.789 383.973 339.269 386.133 339.309C446.427 340.33 496.383 321.19 505.092 255.327C510.412 215.107 489.433 182.481 479.344 145.723C477.205 137.929 474.875 126.333 479.214 119.039C485.944 107.754 494.673 125.753 497.333 131.926C498.453 134.517 501.882 146.163 503.072 147.053C503.732 147.544 511.491 143.772 513.231 143.602C517.331 141.551 514.541 141.25 512.491 138.679C508.912 134.187 503.152 125.823 501.462 120.49C499.683 114.897 506.232 111.756 510.992 111.135C514.871 110.635 533.159 111.766 534.309 110.955C535.759 109.925 537.409 97.4086 536.509 96.4681L536.539 96.5081ZM472.295 115.308C463.596 115.448 457.866 106.563 461.356 98.5992L463.106 103.602C464.176 106.663 465.996 109.475 468.585 111.436C470.065 112.556 471.745 113.296 473.885 113.186C473.975 115.237 474.365 115.267 472.295 115.297V115.308ZM486.294 97.4386C484.794 98.9393 480.194 98.8793 479.274 95.8178C477.225 88.9644 484.604 89.7347 486.294 91.4256C487.474 92.6062 488.324 95.3976 486.294 97.4386Z" fill="#231F20"/>
<path d="M456.126 240.33C465.995 246.713 484.034 258.499 492.163 266.383C504.582 278.419 488.973 274.507 483.754 279.88C482.044 281.64 480.514 285.072 479.834 287.423C479.144 289.815 479.454 292.756 478.604 294.527C477.084 297.698 472.285 296.178 469.395 296.798C466.295 297.458 462.565 301.971 461.805 304.932C461.306 306.853 462.486 308.024 462.406 309.104C462.126 312.816 456.476 311.035 454.686 311.205C452.156 311.445 447.027 313.676 445.637 315.818C444.247 317.959 444.707 321.79 441.867 322.571C439.878 323.121 437.658 320.41 435.278 319.95C429.029 318.749 422.309 327.483 421.179 327.563C420.209 327.633 417.1 325.913 414.89 325.742C412.68 325.572 406.281 327.173 406.011 326.823C405.831 326.593 405.021 322.001 404.941 321.1C402.861 297.158 406.711 269.014 408.11 245.022C408.78 233.596 404.481 212.626 423.759 221.03C432.568 224.872 444.177 233.717 452.656 239.119C453.906 239.92 455.596 239.97 456.126 240.31V240.33Z" fill="#F58429"/>
<path d="M322.459 209.064C325.078 211.255 325.998 214.667 327.638 216.918C328.848 218.569 330.798 218.879 331.578 219.75C333.368 221.741 332.208 224.342 336.787 225.522C343.637 227.283 339.337 226.353 343.347 229.374C345.576 231.055 348.416 230.485 349.396 231.165C349.906 231.515 350.096 233.286 351.086 234.137C354.506 237.068 357.975 234.327 361.405 235.317C363.235 235.848 365.665 238.769 368.035 239.039C370.074 239.269 373.034 237.298 375.214 237.308C379.033 237.328 381.443 241.02 386.933 238.489C388.613 237.708 390.162 234.997 391.712 235.247C393.122 235.467 395.502 237.328 397.582 237.789C400.062 238.329 404.421 237.729 405.521 239.279C405.841 239.729 404.211 246.843 404.951 248.664C392.172 250.445 379.943 251.966 367.095 249.444C362.205 248.484 357.715 246.103 352.736 245.532C346.156 241.29 339.177 237.438 333.948 231.455C330.528 227.543 322.119 215.157 321.569 210.365C321.419 209.044 322.379 209.194 322.449 209.064H322.459Z" fill="#F1852C"/>
<path d="M454.017 97.5886C454.797 98.349 450.697 108.804 450.157 110.875C448.937 115.558 447.447 121.591 446.827 126.313C442.418 159.93 461.026 186.993 441.318 219.81C440.648 220.93 437.548 225.723 436.818 225.723C436.568 225.723 434.419 223.231 433.659 222.581C431.499 220.71 430.789 222.581 431.019 217.919C431.199 214.327 432.709 210.865 432.189 207.043C444.548 205.582 440.308 193.687 441.548 185.643C441.848 183.702 443.268 182.311 443.568 180.37C444.538 174.167 439.718 167.874 440.598 164.952C441.118 163.231 443.238 163.231 443.658 159.62C444.468 152.756 440.538 150.505 440.468 148.114C440.408 145.923 443.288 144.092 443.658 140.86C444.438 133.957 440.688 131.986 440.438 128.224C440.268 125.683 443.428 123.041 443.588 119.88C443.748 116.668 440.778 113.437 441.468 109.685C441.548 109.244 446.907 106.013 448.247 103.752C449.587 101.491 449.627 96.7882 449.877 96.5181C450.087 96.288 453.867 97.4285 454.027 97.5886H454.017Z" fill="#EC8532"/>
<path d="M541.229 123.612C547.539 122.551 569.017 109.805 574.966 114.507C579.036 117.719 579.686 115.728 584.995 116.418C595.074 117.719 605.374 121.671 613.783 127.293C616.552 131.436 612.593 127.784 612.243 127.784H597.104C595.704 130.065 601.354 131.045 600.234 131.946C599.814 132.286 591.525 131.936 589.525 132.206C583.226 133.066 576.616 136.928 570.407 138.139C554.908 141.15 532.77 137.519 521.881 125.202C518.121 120.95 523.151 123.612 523.471 123.612C528.54 123.612 536.68 124.372 541.219 123.612H541.229ZM596.054 125.693C595.794 124.152 594.155 123.652 592.915 123.101C587.385 120.61 569.927 121.07 563.107 121.481C553.008 122.091 542.499 125.052 532.35 125.703C532.77 127.624 534.36 127.664 535.96 127.834C545.299 128.784 555.148 125.843 564.297 124.752C569.047 124.182 577.576 123.502 582.425 122.941C579.816 125.192 578.806 125.393 577.036 125.963C573.356 127.143 569.487 127.824 565.767 128.844C566.397 131.145 568.577 130.945 570.457 130.995C579.316 131.255 587.025 124.382 596.054 125.703V125.693Z" fill="#EC8533"/>
<path d="M596.054 125.693C587.035 124.372 579.316 131.246 570.456 130.985C568.577 130.935 566.397 131.135 565.767 128.834C569.477 127.814 573.356 127.133 577.036 125.953C578.209 125.579 579.719 124.729 581.565 123.402C576.716 123.962 569.037 124.182 564.287 124.752C555.148 125.853 545.289 128.784 535.95 127.834C534.36 127.674 532.76 127.624 532.34 125.703C542.489 125.052 552.998 122.091 563.097 121.481C569.916 121.07 587.375 120.61 592.904 123.101C594.144 123.662 595.774 124.152 596.044 125.693H596.054Z" fill="#47220B"/>
</g>
<defs>
<clipPath id="clip0_2009_3652">
<rect width="276" height="401" fill="white"/>
</clipPath>
<clipPath id="clip1_2009_3652">
<rect width="401" height="401" fill="white" transform="translate(242)"/>
</clipPath>
</defs>
</svg>
